<svg xmlns="http://www.w3.org/2000/svg">
    <g id="ICON_ADD-SQUARE" fill="none">
        <path d="M2 12C2 7.28595 2 4.92893 3.46447 3.46447C4.92893 2 7.28595 2 12 2C16.714 2 19.0711 2 20.5355 3.46447C22 4.92893 22 7.28595 22 12C22 16.714 22 19.0711 20.5355 20.5355C19.0711 22 16.714 22 12 22C7.28595 22 4.92893 22 3.46447 20.5355C2 19.0711 2 16.714 2 12Z" stroke-width="1.5"/>
        <path d="M15 12L12 12M12 12L9 12M12 12L12 9M12 12L12 15" stroke-width="1.5" stroke-linecap="round"/>
    </g>

    <g id="ICON_EDIT">
        <path stroke-width="1.5" fill="none" d="M14.3601 4.07866L15.2869 3.15178C16.8226 1.61607 19.3125 1.61607 20.8482 3.15178C22.3839 4.68748 22.3839 7.17735 20.8482 8.71306L19.9213 9.63993M14.3601 4.07866C14.3601 4.07866 14.4759 6.04828 16.2138 7.78618C17.9517 9.52407 19.9213 9.63993 19.9213 9.63993M14.3601 4.07866L5.83882 12.5999C5.26166 13.1771 4.97308 13.4656 4.7249 13.7838C4.43213 14.1592 4.18114 14.5653 3.97634 14.995C3.80273 15.3593 3.67368 15.7465 3.41556 16.5208L2.32181 19.8021M19.9213 9.63993L11.4001 18.1612C10.8229 18.7383 10.5344 19.0269 10.2162 19.2751C9.84082 19.5679 9.43469 19.8189 9.00498 20.0237C8.6407 20.1973 8.25352 20.3263 7.47918 20.5844L4.19792 21.6782M4.19792 21.6782L3.39584 21.9456C3.01478 22.0726 2.59466 21.9734 2.31063 21.6894C2.0266 21.4053 1.92743 20.9852 2.05445 20.6042L2.32181 19.8021M4.19792 21.6782L2.32181 19.8021"/>
    </g>

    <g id="ICON_STAR">
        <path id="Vector" d="M9.15316 5.40838C10.4198 3.13613 11.0531 2 12 2C12.9469 2 13.5802 3.13612 14.8468 5.40837L15.1745 5.99623C15.5345 6.64193 15.7144 6.96479 15.9951 7.17781C16.2757 7.39083 16.6251 7.4699 17.3241 7.62805L17.9605 7.77203C20.4201 8.32856 21.65 8.60682 21.9426 9.54773C22.2352 10.4886 21.3968 11.4691 19.7199 13.4299L19.2861 13.9372C18.8096 14.4944 18.5713 14.773 18.4641 15.1177C18.357 15.4624 18.393 15.8341 18.465 16.5776L18.5306 17.2544C18.7841 19.8706 18.9109 21.1787 18.1449 21.7602C17.3788 22.3417 16.2273 21.8115 13.9243 20.7512L13.3285 20.4768C12.6741 20.1755 12.3469 20.0248 12 20.0248C11.6531 20.0248 11.3259 20.1755 10.6715 20.4768L10.0757 20.7512C7.77268 21.8115 6.62118 22.3417 5.85515 21.7602C5.08912 21.1787 5.21588 19.8706 5.4694 17.2544L5.53498 16.5776C5.60703 15.8341 5.64305 15.4624 5.53586 15.1177C5.42868 14.773 5.19043 14.4944 4.71392 13.9372L4.2801 13.4299C2.60325 11.4691 1.76482 10.4886 2.05742 9.54773C2.35002 8.60682 3.57986 8.32856 6.03954 7.77203L6.67589 7.62805C7.37485 7.4699 7.72433 7.39083 8.00494 7.17781C8.28555 6.96479 8.46553 6.64194 8.82547 5.99623L9.15316 5.40838Z"   stroke-width="1.5"/>
    </g>

    <g id="ICON_TRASH">
        <path id="Vector" d="M20.5001 6H3.5" stroke-width="1.5" stroke-linecap="round"/>
        <path id="Vector_2" d="M18.8332 8.5L18.3732 15.3991C18.1962 18.054 18.1077 19.3815 17.2427 20.1907C16.3777 21 15.0473 21 12.3865 21H11.6132C8.95235 21 7.62195 21 6.75694 20.1907C5.89194 19.3815 5.80344 18.054 5.62644 15.3991L5.1665 8.5" stroke-width="1.5" stroke-linecap="round"/>
        <path id="Vector_3" d="M9.5 11L10 16" stroke-width="1.5" stroke-linecap="round"/>
        <path id="Vector_4" d="M14.5 11L14 16" stroke-width="1.5" stroke-linecap="round"/>
        <path id="Vector_5" d="M6.5 6C6.55588 6 6.58382 6 6.60915 5.99936C7.43259 5.97849 8.15902 5.45491 8.43922 4.68032C8.44784 4.65649 8.45667 4.62999 8.47434 4.57697L8.57143 4.28571C8.65431 4.03708 8.69575 3.91276 8.75071 3.8072C8.97001 3.38607 9.37574 3.09364 9.84461 3.01877C9.96213 3 10.0932 3 10.3553 3H13.6447C13.9068 3 14.0379 3 14.1554 3.01877C14.6243 3.09364 15.03 3.38607 15.2493 3.8072C15.3043 3.91276 15.3457 4.03708 15.4286 4.28571L15.5257 4.57697C15.5433 4.62992 15.5522 4.65651 15.5608 4.68032C15.841 5.45491 16.5674 5.97849 17.3909 5.99936C17.4162 6 17.4441 6 17.5 6" stroke-width="1.5"/>
    </g>

    <g id="ICON_DELETE">
        <path d="M2 12C2 7.28595 2 4.92893 3.46447 3.46447C4.92893 2 7.28595 2 12 2C16.714 2 19.0711 2 20.5355 3.46447C22 4.92893 22 7.28595 22 12C22 16.714 22 19.0711 20.5355 20.5355C19.0711 22 16.714 22 12 22C7.28595 22 4.92893 22 3.46447 20.5355C2 19.0711 2 16.714 2 12Z" stroke-width="1.5"/>
        <path d="M14.5 9.50002L9.5 14.5M9.49998 9.5L14.5 14.5" stroke-width="1.5" stroke-linecap="round"/>
    </g>

    <g id="ICON_DANGER">
        <path d="M12 7V13" stroke-width="1.5" stroke-linecap="round"/>
        <circle cx="12" cy="16" r="1"/>
        <path d="M2 12C2 7.28595 2 4.92893 3.46447 3.46447C4.92893 2 7.28595 2 12 2C16.714 2 19.0711 2 20.5355 3.46447C22 4.92893 22 7.28595 22 12C22 16.714 22 19.0711 20.5355 20.5355C19.0711 22 16.714 22 12 22C7.28595 22 4.92893 22 3.46447 20.5355C2 19.0711 2 16.714 2 12Z" stroke-width="1.5"/>
    </g>

    <g id="ICON_ADD-CONTACT" fill="none">
        <circle cx="10" cy="6" r="4" stroke-width="1.5"/>
        <path d="M18 17.5C18 19.9853 18 22 10 22C2 22 2 19.9853 2 17.5C2 15.0147 5.58172 13 10 13C14.4183 13 18 15.0147 18 17.5Z" stroke-width="1.5"/>
        <path d="M21 10H19M19 10H17M19 10L19 8M19 10L19 12" stroke-width="1.5" stroke-linecap="round"/>
    </g>

    <g id="ICON_PERSONAL" fill="none">
        <circle cx="12" cy="6" r="4" stroke-width="1.5"/>
        <path d="M20 17.5C20 19.9853 20 22 12 22C4 22 4 19.9853 4 17.5C4 15.0147 7.58172 13 12 13C16.4183 13 20 15.0147 20 17.5Z" stroke-width="1.5"/>
    </g>

    <g id="ICON_CLOSE">
        <path d="M6.49998 1.50002L1.5 6.5M1.49998 1.5L6.49996 6.49998" stroke-width="1.5" stroke-linecap="round"/>
    </g>

    <g id="ICON_SEARCH">
        <path fill-rule="evenodd" clip-rule="evenodd" d="M11.5 2.75C6.66751 2.75 2.75 6.66751 2.75 11.5C2.75 16.3325 6.66751 20.25 11.5 20.25C16.3325 20.25 20.25 16.3325 20.25 11.5C20.25 6.66751 16.3325 2.75 11.5 2.75ZM1.25 11.5C1.25 5.83908 5.83908 1.25 11.5 1.25C17.1609 1.25 21.75 5.83908 21.75 11.5C21.75 14.0605 20.8111 16.4017 19.2589 18.1982L22.5303 21.4697C22.8232 21.7626 22.8232 22.2374 22.5303 22.5303C22.2374 22.8232 21.7626 22.8232 21.4697 22.5303L18.1982 19.2589C16.4017 20.8111 14.0605 21.75 11.5 21.75C5.83908 21.75 1.25 17.1609 1.25 11.5Z"/>
    </g>

    <g id="ICON_ORGANIZATION">
        <path d="M22 22L2 22" stroke-width="1.5" stroke-linecap="round"/>
        <path d="M17 22V6C17 4.11438 17 3.17157 16.4142 2.58579C15.8284 2 14.8856 2 13 2H11C9.11438 2 8.17157 2 7.58579 2.58579C7 3.17157 7 4.11438 7 6V22" stroke-width="1.5"/>
        <path d="M21 22V11.5C21 10.0955 21 9.39331 20.6629 8.88886C20.517 8.67048 20.3295 8.48298 20.1111 8.33706C19.6067 8 18.9045 8 17.5 8" stroke-width="1.5"/>
        <path d="M3 22V11.5C3 10.0955 3 9.39331 3.33706 8.88886C3.48298 8.67048 3.67048 8.48298 3.88886 8.33706C4.39331 8 5.09554 8 6.5 8" stroke-width="1.5"/>
        <path d="M12 22V19" stroke-width="1.5" stroke-linecap="round"/>
        <path d="M10 5H14" stroke-width="1.5" stroke-linecap="round"/>
        <path d="M10 8H14" stroke-width="1.5" stroke-linecap="round"/>
        <path d="M10 11H14" stroke-width="1.5" stroke-linecap="round"/>
        <path d="M10 14H14" stroke-width="1.5" stroke-linecap="round"/>
    </g>

    <g id="ICON_PHONE">
        <path d="M11.0376 4.31617L11.6866 5.4791C12.2723 6.52858 12.0372 7.90532 11.1147 8.8278C11.1147 8.8278 11.1147 8.8278 11.1147 8.8278C11.1146 8.82792 9.99588 9.94685 12.0245 11.9755C14.0525 14.0035 15.1714 12.8861 15.1722 12.8853C15.1722 12.8853 15.1722 12.8853 15.1722 12.8853C16.0947 11.9628 17.4714 11.7277 18.5209 12.3134L19.6838 12.9624C21.2686 13.8468 21.4557 16.0692 20.0628 17.4622C19.2258 18.2992 18.2004 18.9505 17.0669 18.9934C15.1588 19.0658 11.9183 18.5829 8.6677 15.3323C5.41713 12.0817 4.93421 8.84122 5.00655 6.93309C5.04952 5.7996 5.7008 4.77423 6.53781 3.93723C7.93076 2.54428 10.1532 2.73144 11.0376 4.31617Z" stroke-width="1.5" stroke-linecap="round"/>
    </g>

    <g id="ICON_ARROW-UP">
        <path d="M19 15L12 9L5 15" stroke-width="1.5" stroke-linecap="round" stroke-linejoin="round"/>
    </g>

    <g id="ICON_ARROW-DOWN">
        <path d="M19 9L12 15L5 9" stroke-width="1.5" stroke-linecap="round" stroke-linejoin="round"/>
    </g>

    <g id="ICON_EMAIL">
        <path d="M2 12C2 8.22876 2 6.34315 3.17157 5.17157C4.34315 4 6.22876 4 10 4H14C17.7712 4 19.6569 4 20.8284 5.17157C22 6.34315 22 8.22876 22 12C22 15.7712 22 17.6569 20.8284 18.8284C19.6569 20 17.7712 20 14 20H10C6.22876 20 4.34315 20 3.17157 18.8284C2 17.6569 2 15.7712 2 12Z" stroke-width="1.5"/>
        <path d="M6 8L8.1589 9.79908C9.99553 11.3296 10.9139 12.0949 12 12.0949C13.0861 12.0949 14.0045 11.3296 15.8411 9.79908L18 8" stroke-width="1.5" stroke-linecap="round"/>
    </g>

    <g id="ICON_MESSAGES" fill="none">
        <path d="M12 22C17.5228 22 22 17.5228 22 12C22 6.47715 17.5228 2 12 2C6.47715 2 2 6.47715 2 12C2 13.5997 2.37562 15.1116 3.04346 16.4525C3.22094 16.8088 3.28001 17.2161 3.17712 17.6006L2.58151 19.8267C2.32295 20.793 3.20701 21.677 4.17335 21.4185L6.39939 20.8229C6.78393 20.72 7.19121 20.7791 7.54753 20.9565C8.88837 21.6244 10.4003 22 12 22Z" stroke-width="1.5"/>
        <path d="M8 10.5H16" stroke-width="1.5" stroke-linecap="round"/>
        <path d="M8 14H13.5" stroke-width="1.5" stroke-linecap="round"/>
    </g>

    <g id="ICON_CONTACTS" fill="none">
        <path d="M4.6072 10.8973L5.9469 10.5173C7.15591 10.1744 8 8.98261 8 7.6185C8 7.6185 8 7.6185 8 7.6185C8 7.61849 8.00001 5.96388 11 5.96388C13.9999 5.96388 14 7.61844 14 7.6185C14 7.6185 14 7.6185 14 7.6185C14 8.98261 14.8441 10.1744 16.0531 10.5173L17.3928 10.8973C19.2184 11.4151 21 9.91024 21 7.85042C21 6.61271 20.7234 5.37304 19.9171 4.5032C18.5598 3.03889 15.8068 1 11 1C6.19322 1 3.44023 3.03888 2.08289 4.50319C1.27659 5.37303 1 6.6127 1 7.85042C1 9.91024 2.78158 11.4151 4.6072 10.8973Z" stroke-width="1.5" stroke-linecap="round"/>
    </g>

    <g id="ICON_MAXIMIZE" fill="none">
        <path d="M13 11L22 2M22 2H16.6562M22 2V7.34375" stroke-width="1.5" stroke-linecap="round" stroke-linejoin="round"/>
        <path d="M22 12C22 16.714 22 19.0711 20.5355 20.5355C19.0711 22 16.714 22 12 22C7.28595 22 4.92893 22 3.46447 20.5355C2 19.0711 2 16.714 2 12C2 7.28595 2 4.92893 3.46447 3.46447C4.92893 2 7.28595 2 12 2" stroke-width="1.5" stroke-linecap="round"/>
    </g>

    <g id="ICON_ADDRESS" fill="none"> 
        <path d="M4 10.1433C4 5.64588 7.58172 2 12 2C16.4183 2 20 5.64588 20 10.1433C20 14.6055 17.4467 19.8124 13.4629 21.6744C12.5343 22.1085 11.4657 22.1085 10.5371 21.6744C6.55332 19.8124 4 14.6055 4 10.1433Z" stroke-width="1.5"/>
        <circle cx="12" cy="10" r="3" stroke-width="1.5"/>
    </g>

    <g id="ICON_ARROW-BACK">
        <path fill-rule="evenodd" clip-rule="evenodd" d="M7.53033 0.46967C7.82322 0.762563 7.82322 1.23744 7.53033 1.53033L2.81066 6.25H17C17.4142 6.25 17.75 6.58579 17.75 7C17.75 7.41421 17.4142 7.75 17 7.75H2.81066L7.53033 12.4697C7.82322 12.7626 7.82322 13.2374 7.53033 13.5303C7.23744 13.8232 6.76256 13.8232 6.46967 13.5303L0.46967 7.53033C0.176777 7.23744 0.176777 6.76256 0.46967 6.46967L6.46967 0.46967C6.76256 0.176777 7.23744 0.176777 7.53033 0.46967Z"/>
    </g>

    <g id="ICON_BROOM">
        <path fill-rule="evenodd" clip-rule="evenodd" d="M20.0367 0.883732C20.3296 1.17663 20.3296 1.6515 20.0367 1.94439L18.404 3.57701C19.6352 5.27231 19.6068 7.59792 18.319 9.26419L18.3229 9.29624L18.291 9.30005C18.291 9.30011 18.2911 9.29998 18.291 9.30005C18.3231 9.29627 18.3229 9.29618 18.3229 9.29624L18.3234 9.30074L18.3243 9.3089L18.3273 9.33602C18.3296 9.35882 18.3328 9.39101 18.3365 9.43205C18.3438 9.51411 18.353 9.63167 18.3611 9.78049C18.3774 10.0779 18.3898 10.5013 18.3756 11.0165C18.3471 12.0442 18.2121 13.4509 17.7816 14.9569C17.4906 15.9747 17.0376 16.9818 16.5726 17.8625C15.4115 20.0616 12.7398 20.7184 10.6965 19.6754L10.6716 19.6627L9.55138 18.9812C6.44145 17.0893 3.8309 14.4788 1.93902 11.3688L1.25761 10.2487L1.24489 10.2238C0.201893 8.18046 0.858693 5.50879 3.0578 4.34768C3.93847 3.88268 4.94556 3.42972 5.96344 3.13874C7.46937 2.70823 8.8761 2.57319 9.90383 2.54473C10.419 2.53046 10.8424 2.54288 11.1398 2.55919C11.2886 2.56734 11.4062 2.57649 11.4882 2.5838C11.5293 2.58745 11.5615 2.59065 11.5843 2.59304L11.6114 2.59597L11.6196 2.5969L11.6223 2.59722L11.6233 2.59734C11.6233 2.59735 11.6238 2.5974 11.62 2.62984C11.6199 2.62989 11.6201 2.62978 11.62 2.62984L11.6233 2.59734L11.6565 2.60132C13.3228 1.31367 15.6482 1.2853 17.3434 2.51635L18.976 0.883733C19.2689 0.590839 19.7438 0.590839 20.0367 0.883732ZM11.1978 4.06557C11.1559 4.06269 11.1092 4.05976 11.0577 4.05694C10.7959 4.04259 10.4141 4.03117 9.94536 4.04415C9.00527 4.07019 7.72929 4.19401 6.37573 4.58096C5.49186 4.83364 4.58509 5.23752 3.75816 5.67414C2.35154 6.41682 1.88512 8.14837 2.56901 9.51825L3.22052 10.5892C4.98767 13.4941 7.42609 15.9325 10.331 17.6997L11.402 18.3513C12.7719 19.0352 14.5035 18.5688 15.2462 17.1621C15.6828 16.3352 16.0867 15.4284 16.3393 14.5446C16.7263 13.191 16.8501 11.915 16.8761 10.9749C16.8891 10.5062 16.8777 10.1244 16.8634 9.86259C16.8605 9.81114 16.8576 9.76437 16.8547 9.72253L11.1978 4.06557ZM17.3236 8.07008L12.8504 3.5969C14.1034 2.82281 15.768 2.97907 16.8547 4.06571C17.9413 5.15238 18.0977 6.81714 17.3236 8.07008Z"/>
    </g>

    <g id="ICON_DATE" fill="none">
        <path d="M2 12C2 8.22876 2 6.34315 3.17157 5.17157C4.34315 4 6.22876 4 10 4H14C17.7712 4 19.6569 4 20.8284 5.17157C22 6.34315 22 8.22876 22 12V14C22 17.7712 22 19.6569 20.8284 20.8284C19.6569 22 17.7712 22 14 22H10C6.22876 22 4.34315 22 3.17157 20.8284C2 19.6569 2 17.7712 2 14V12Z" stroke-width="1.5"/>
        <path d="M7 4V2.5" stroke-width="1.5" stroke-linecap="round"/>
        <path d="M17 4V2.5" stroke-width="1.5" stroke-linecap="round"/>
        <circle cx="16.5" cy="16.5" r="1.5" stroke-width="1.5"/>
        <path d="M2.5 9H21.5" stroke-width="1.5" stroke-linecap="round"/>
    </g>
</svg>